PathFileType	4	(X/Y/Z)	T1_P2_NoVision_Movement_3_0-732.trc
DataRate	CameraRate	NumFrames	NumMarkers	Units	OrigDataRate	OrigDataStartFrame	OrigNumFrames
60	60	4	27	m	60	457	732
Frame#	Time	RHip			RKnee			RAnkle			RBigToe			RSmallToe			RHeel			LHip			LKnee			LAnkle			LBigToe			LSmallToe			LHeel			Neck			Head			Nose			RShoulder			RElbow			RWrist			RThumb			RIndex			RPinky			LShoulder			LElbow			LWrist			LThumb			LIndex			LPinky		
		X1	Y1	Z1	X2	Y2	Z2	X3	Y3	Z3	X4	Y4	Z4	X5	Y5	Z5	X6	Y6	Z6	X7	Y7	Z7	X8	Y8	Z8	X9	Y9	Z9	X10	Y10	Z10	X11	Y11	Z11	X12	Y12	Z12	X13	Y13	Z13	X14	Y14	Z14	X15	Y15	Z15	X16	Y16	Z16	X17	Y17	Z17	X18	Y18	Z18	X19	Y19	Z19	X20	Y20	Z20	X21	Y21	Z21	X22	Y22	Z22	X23	Y23	Z23	X24	Y24	Z24	X25	Y25	Z25	X26	Y26	Z26	X27	Y27	Z27
458	7.633333333333334	463.14165804382327	3620.7703414313355	540.1999891933849	848.0117461936917	3655.2159587207016	539.5050362030692	1243.075712782017	3719.420233359082	628.2778345747657	1333.1203580414622	3630.5208512756562	607.3571825987128	1309.4691560623983	3638.4964235277384	548.5233843813869	1278.7722677487889	3706.4692308895706	627.5572152741488	468.4581228304078	3507.555863110924	734.386417723839	881.0568491042086	3544.601958334003	747.2246976458201	1234.5512408648476	3589.505837881152	723.833980839379	1331.9547201266757	3562.637794279902	685.4326396505085	1278.6407999843168	3464.822533991986	704.7467456744126	1276.7339235888105	3615.2429495106135	717.5360615723869	-122.79641937632466	3533.971273035003	639.8238943100042	-373.95782374790593	3504.5292333763773	624.0022641973899	-234.79565151595384	3434.166735549968	586.7155709741969	-35.18704483690575	3671.9443207987006	536.8144336183234	207.18324634406196	3709.367579620887	453.7489437707323	453.50885979226456	3652.2482813630536	411.421571057965	605.3618094761812	3574.2163643806502	400.02513218162454	621.5272126790786	3629.721452798051	389.1929812052434	584.8593199542051	3596.4681839142827	323.325513682211	-14.72800823813145	3512.986422689529	810.6083512170152	244.36669272094582	3433.124188281576	833.7115670319998	485.42457867837635	3430.4569109268764	829.6316122277518	598.5201148027911	3428.2069139283135	810.4616851470124	605.0435932339392	3415.8795707666636	821.8339508608431	599.4168893378175	3372.014591842963	845.0185115697274
459	7.65	462.9503870229312	3621.1972537985876	540.2172972926259	847.3553884025613	3655.0093035796435	539.2143331776149	1242.9693094231682	3719.3351520344213	628.4555096889834	1330.668284777404	3635.151934003545	609.913891107849	1302.7570751111593	3633.9968905712644	547.4199430838493	1278.6683511524081	3704.2019037376945	632.1557116998707	458.306816703799	3502.5442197199413	731.975370479227	875.3274388370689	3558.4927898951687	750.832377691718	1234.6141777275311	3589.60558245073	723.9599958272877	1324.2034429326661	3546.894930225142	671.5746316218514	1278.7213771212546	3464.7776766914476	704.7577691566058	1276.7019921682977	3612.0277100851786	721.1819498383131	-122.76205224077158	3534.0193330548004	639.8899878082073	-373.9693339819577	3504.5543199588265	623.9847664003923	-234.807720432305	3434.3636259773966	586.7842824001153	-35.17177673140839	3672.1255202434963	536.9037520882025	207.22395128218287	3709.7350113888974	453.95102579427345	453.38500257464693	3652.8125466235583	411.5670610216782	605.3870664973953	3574.537892863069	400.0166463788347	626.2622897628801	3632.314092110728	390.18997359252324	590.0160019013367	3599.9418917636854	323.82416526648365	-19.304167124504925	3530.1289194333444	815.5196624969981	244.40481548426428	3433.2270945732434	833.7630309314915	485.5100258006056	3430.5142962992663	829.7618059298179	598.5334679979314	3428.2135471833744	810.4763623013995	605.1116773784858	3415.5639414719294	821.7281275138961	599.5145725452667	3371.891497287677	844.9593183343346
460	7.666666666666667	463.3181396670975	3621.2295143051088	540.3314182480109	847.877070591566	3655.418058772107	539.4687227041827	1245.708406287349	3713.871126570347	625.7821252216858	1326.1761272402025	3625.7973212284796	606.2974573230865	1302.7632945617677	3633.7376766425427	547.3649532648908	1281.5750872302594	3693.896383030562	637.3349005240664	468.5252996965965	3508.082854453031	734.5627596802675	875.6224195049025	3559.2038568925013	751.0057013237762	1234.484939562724	3589.650100308302	723.9458513300539	1324.2024786640604	3546.933084447157	671.514083556127	1278.6996023930594	3464.8744705616327	704.7222466751678	1276.521291650504	3612.09982149657	721.2456570189945	-122.73607983586867	3534.0047535176404	639.8896464375377	-373.98513309529824	3504.6547144734877	624.0056153326	-234.87948139407314	3434.3815084080647	586.8914930624084	-35.172683542547695	3672.099985221877	536.8489533554316	212.24549638467073	3714.0913389253683	455.361329352337	453.2694248939364	3653.025203002851	411.623242980402	605.3928456100722	3574.6454675220753	399.9367680746485	621.5838662193435	3630.3750117096533	388.92107769135777	589.9706215265162	3600.5090689371727	323.6512408747932	-19.322738260156083	3530.10543232611	815.4485103585702	239.8196250212801	3431.722712550178	832.7999251536941	485.4981592749426	3430.604132104631	829.8198180192438	598.8251473185474	3426.632812947268	814.9284792186677	605.1163176749977	3416.033030251298	822.0766165770428	599.5801104985138	3372.0573765685176	845.126712665866
461	7.683333333333334	468.25740801151056	3625.0349527219223	541.5490451358862	847.8975665594211	3655.993349811937	539.5359600244018	1243.0567134142498	3717.626375419971	629.2436734426175	1323.8726464140827	3631.560480910661	609.3365870263289	1302.767290294326	3634.0174502122804	547.4335512433859	1280.0968679648547	3719.247100633366	640.5390810447434	468.29370941357666	3507.7957058412558	734.3839751914892	881.517052665934	3563.5414703026286	752.3977370844262	1234.499478007131	3589.57208945484	723.8955220054359	1325.622257634856	3558.7394187785844	684.4776602501165	1278.634932384816	3464.8992501219577	704.7638927076131	1276.545636776617	3611.9941686900884	721.1911250695708	-122.78012088914214	3534.0285542864713	639.917049214225	-373.9391142379244	3502.8189504280467	628.2734434008072	-234.8925631309661	3434.3331544082903	586.8710686464156	-35.193401573188524	3672.1102042183625	536.9112922931191	212.362416567855	3714.2681137911186	455.39739342595664	454.4876097282177	3661.383052752501	414.6762251673283	600.6311869413827	3570.614807078797	398.7634112939405	616.7944562274762	3625.5176756037977	387.4951574943904	584.1499490131328	3597.4502266961226	316.97144709187455	-19.321731361546775	3530.268491949852	815.6344887300687	239.69307532395425	3431.7442721341818	832.7337124905677	485.3306016838811	3430.7513764289783	829.8468453010452	598.8641156591356	3426.135898719439	814.6941156630422	605.258589808471	3416.0412865582825	822.123447664294	599.6017647409449	3372.0991928105723	845.1997722730868
